<?xml version="1.0" encoding="UTF-8"?>
<svg xmlns="http://www.w3.org/2000/svg" xmlns:xlink="http://www.w3.org/1999/xlink" width="37.5pt" height="37.499999pt" viewBox="0 0 37.5 37.499999" version="1.2">
<defs>
<clipPath id="clip1">
  <path d="M 17 0.476562 L 24.257812 0.476562 L 24.257812 37 L 17 37 Z M 17 0.476562 "/>
</clipPath>
<clipPath id="clip2">
  <path d="M 13.007812 31 L 14 31 L 14 32 L 13.007812 32 Z M 13.007812 31 "/>
</clipPath>
<clipPath id="clip3">
  <path d="M 17 37 L 18 37 L 18 37.007812 L 17 37.007812 Z M 17 37 "/>
</clipPath>
<clipPath id="clip4">
  <path d="M 13.007812 31 L 18 31 L 18 37.007812 L 13.007812 37.007812 Z M 13.007812 31 "/>
</clipPath>
<clipPath id="clip5">
  <path d="M 17 37 L 18 37 L 18 37.007812 L 17 37.007812 Z M 17 37 "/>
</clipPath>
<clipPath id="clip6">
  <path d="M 17 37 L 18 37 L 18 37.007812 L 17 37.007812 Z M 17 37 "/>
</clipPath>
</defs>
<g id="surface1">
<path style=" stroke:none;fill-rule:nonzero;fill:rgb(0.389099%,0.389099%,0.389099%);fill-opacity:1;" d="M 19.753906 12.636719 C 19.753906 12.613281 19.746094 12.605469 19.753906 12.636719 Z M 19.753906 12.636719 "/>
<path style=" stroke:none;fill-rule:nonzero;fill:rgb(0.389099%,0.389099%,0.389099%);fill-opacity:1;" d="M 19.40625 26.328125 C 19.40625 26.335938 19.40625 26.335938 19.40625 26.34375 C 19.421875 26.351562 19.4375 26.367188 19.445312 26.375 Z M 19.40625 26.328125 "/>
<path style=" stroke:none;fill-rule:nonzero;fill:rgb(0.389099%,0.389099%,0.389099%);fill-opacity:1;" d="M 19.207031 28.527344 C 19.207031 28.535156 19.207031 28.535156 19.199219 28.542969 C 19.207031 28.542969 19.210938 28.542969 19.207031 28.527344 Z M 19.207031 28.527344 "/>
<path style=" stroke:none;fill-rule:nonzero;fill:rgb(0.389099%,0.389099%,0.389099%);fill-opacity:1;" d="M 19.484375 21.253906 C 19.484375 21.230469 19.484375 21.222656 19.476562 21.214844 C 19.476562 21.222656 19.476562 21.238281 19.484375 21.253906 Z M 19.484375 21.253906 "/>
<path style=" stroke:none;fill-rule:nonzero;fill:rgb(0.389099%,0.389099%,0.389099%);fill-opacity:1;" d="M 19.730469 8.597656 C 19.730469 8.597656 19.730469 8.605469 19.730469 8.605469 C 19.730469 8.597656 19.738281 8.589844 19.738281 8.582031 Z M 19.730469 8.597656 "/>
<path style=" stroke:none;fill-rule:nonzero;fill:rgb(0.389099%,0.389099%,0.389099%);fill-opacity:1;" d="M 19.753906 8.644531 C 19.738281 8.6875 19.730469 8.628906 19.730469 8.605469 C 19.707031 8.660156 19.707031 8.710938 19.714844 8.765625 C 19.738281 8.765625 19.738281 8.667969 19.753906 8.644531 Z M 19.753906 8.644531 "/>
<path style=" stroke:none;fill-rule:nonzero;fill:rgb(0.389099%,0.389099%,0.389099%);fill-opacity:1;" d="M 19.3125 1.1875 L 19.328125 1.210938 C 19.328125 1.195312 19.320312 1.1875 19.3125 1.1875 Z M 19.3125 1.1875 "/>
<path style=" stroke:none;fill-rule:nonzero;fill:rgb(0.389099%,0.389099%,0.389099%);fill-opacity:1;" d="M 18.304688 21.425781 C 18.304688 21.417969 18.304688 21.402344 18.296875 21.394531 C 18.296875 21.410156 18.304688 21.417969 18.304688 21.425781 Z M 18.304688 21.425781 "/>
<path style=" stroke:none;fill-rule:nonzero;fill:rgb(0.389099%,0.389099%,0.389099%);fill-opacity:1;" d="M 19.5625 2.386719 L 19.601562 2.390625 C 19.585938 2.386719 19.570312 2.378906 19.5625 2.386719 Z M 19.5625 2.386719 "/>
<path style=" stroke:none;fill-rule:nonzero;fill:rgb(0.389099%,0.389099%,0.389099%);fill-opacity:1;" d="M 19.445312 26.375 L 19.460938 26.390625 C 19.453125 26.382812 19.453125 26.382812 19.445312 26.375 Z M 19.445312 26.375 "/>
<path style=" stroke:none;fill-rule:nonzero;fill:rgb(0.389099%,0.389099%,0.389099%);fill-opacity:1;" d="M 19.066406 30.5625 C 19.058594 30.5625 19.042969 30.570312 19.035156 30.570312 C 19.035156 30.570312 19.035156 30.578125 19.035156 30.578125 Z M 19.066406 30.5625 "/>
<path style=" stroke:none;fill-rule:nonzero;fill:rgb(0.389099%,0.389099%,0.389099%);fill-opacity:1;" d="M 22.886719 31.84375 C 22.886719 31.84375 22.878906 31.835938 22.871094 31.835938 L 22.847656 31.878906 C 22.871094 31.859375 22.878906 31.851562 22.886719 31.84375 Z M 22.886719 31.84375 "/>
<path style=" stroke:none;fill-rule:nonzero;fill:rgb(0.389099%,0.389099%,0.389099%);fill-opacity:1;" d="M 18.738281 33.296875 C 18.746094 33.296875 18.746094 33.304688 18.753906 33.304688 C 18.753906 33.296875 18.761719 33.289062 18.761719 33.28125 C 18.761719 33.273438 18.761719 33.273438 18.761719 33.265625 C 18.761719 33.265625 18.761719 33.242188 18.769531 33.230469 C 18.777344 33.167969 18.777344 33.101562 18.785156 33.019531 L 18.738281 33.003906 C 18.738281 33.003906 18.738281 33.085938 18.738281 33.167969 C 18.738281 33.273438 18.738281 33.296875 18.738281 33.296875 Z M 18.738281 33.296875 "/>
<g clip-path="url(#clip1)" clip-rule="nonzero">
<path style=" stroke:none;fill-rule:nonzero;fill:rgb(0.389099%,0.389099%,0.389099%);fill-opacity:1;" d="M 19.199219 35.15625 C 19.199219 35.15625 19.089844 35.234375 18.972656 35.308594 C 18.871094 35.375 18.761719 35.445312 18.761719 35.445312 C 18.933594 35.277344 19.089844 35.121094 19.234375 34.984375 C 19.382812 34.855469 19.523438 34.734375 19.65625 34.621094 C 19.722656 34.570312 19.785156 34.507812 19.847656 34.457031 C 19.894531 34.417969 19.941406 34.390625 19.980469 34.351562 C 20.050781 34.296875 20.113281 34.253906 20.179688 34.199219 C 20.445312 34.003906 20.699219 33.824219 21.011719 33.566406 L 20.988281 33.605469 C 21.042969 33.582031 21.050781 33.515625 21.203125 33.394531 C 21.28125 33.335938 21.390625 33.257812 21.5625 33.167969 C 21.730469 33.078125 21.964844 32.972656 22.273438 32.859375 L 22.28125 32.867188 C 22.320312 32.84375 22.3125 32.828125 22.398438 32.800781 C 22.398438 32.800781 22.34375 32.816406 22.289062 32.828125 C 22.234375 32.84375 22.179688 32.867188 22.179688 32.867188 C 22.28125 32.777344 22.367188 32.679688 22.515625 32.589844 C 22.554688 32.582031 22.578125 32.589844 22.582031 32.597656 C 22.582031 32.597656 22.675781 32.535156 22.769531 32.484375 C 22.863281 32.429688 22.964844 32.371094 22.964844 32.371094 L 23.109375 32.355469 C 23.210938 32.265625 23.101562 32.183594 23.460938 32.078125 C 23.296875 32.0625 23.597656 31.949219 23.539062 31.933594 C 23.558594 31.933594 23.605469 31.933594 23.636719 31.925781 C 23.824219 31.820312 24.1875 31.625 24.257812 31.542969 C 24.257812 31.542969 24.046875 31.59375 23.800781 31.640625 C 23.558594 31.691406 23.28125 31.753906 23.15625 31.769531 C 23.445312 31.648438 23.226562 31.722656 23.15625 31.722656 L 23.148438 31.753906 C 22.972656 31.820312 22.949219 31.773438 22.855469 31.796875 C 22.855469 31.804688 22.863281 31.804688 22.871094 31.804688 L 22.878906 31.789062 C 22.894531 31.796875 22.886719 31.804688 22.886719 31.8125 C 22.894531 31.820312 22.894531 31.835938 22.847656 31.859375 L 22.855469 31.851562 C 22.792969 31.894531 22.667969 31.949219 22.613281 31.980469 L 22.589844 31.941406 C 22.554688 32.007812 22.335938 32.089844 22.101562 32.175781 C 21.871094 32.257812 21.628906 32.332031 21.554688 32.386719 C 21.359375 32.4375 21.203125 32.617188 20.996094 32.722656 C 20.675781 32.921875 20.800781 32.769531 20.625 32.84375 C 20.414062 32.957031 20.691406 32.859375 20.617188 32.921875 C 20.617188 32.921875 20.546875 32.949219 20.484375 32.972656 C 20.414062 33.003906 20.351562 33.027344 20.351562 33.027344 C 20.484375 32.925781 20.390625 32.957031 20.359375 32.957031 C 20.257812 33.027344 20.121094 33.101562 20.003906 33.167969 C 19.886719 33.242188 19.792969 33.3125 19.792969 33.371094 C 19.5 33.539062 19.484375 33.515625 19.367188 33.597656 C 19.414062 33.582031 19.5 33.539062 19.515625 33.546875 C 19.382812 33.597656 19.46875 33.589844 19.523438 33.566406 C 19.507812 33.589844 19.476562 33.613281 19.445312 33.636719 C 19.429688 33.652344 19.40625 33.660156 19.390625 33.671875 C 19.382812 33.679688 19.367188 33.6875 19.359375 33.695312 C 19.351562 33.703125 19.351562 33.703125 19.34375 33.703125 L 19.335938 33.710938 C 19.28125 33.734375 19.226562 33.765625 19.183594 33.777344 C 19.089844 33.816406 19.035156 33.824219 19.011719 33.90625 L 19.019531 33.875 C 19.003906 33.9375 18.996094 33.996094 18.980469 34.050781 C 18.972656 34.101562 18.957031 34.148438 18.910156 34.214844 C 18.910156 34.214844 18.878906 34.199219 18.878906 34.199219 L 18.792969 34.320312 C 18.761719 34.320312 18.800781 34.261719 18.800781 34.246094 C 18.726562 34.335938 18.65625 34.402344 18.59375 34.457031 C 18.554688 34.5 18.585938 34.417969 18.585938 34.382812 C 18.59375 34.335938 18.601562 34.296875 18.601562 34.253906 C 18.601562 34.253906 18.539062 34.394531 18.476562 34.5625 C 18.414062 34.726562 18.351562 34.910156 18.351562 34.910156 C 18.382812 34.765625 18.429688 34.570312 18.46875 34.394531 C 18.5 34.253906 18.515625 34.15625 18.476562 34.191406 C 18.476562 34.191406 18.5 34.140625 18.515625 34.085938 C 18.539062 34.042969 18.554688 33.988281 18.554688 33.988281 C 18.59375 33.871094 18.609375 33.808594 18.617188 33.769531 C 18.617188 33.734375 18.609375 33.726562 18.601562 33.71875 C 18.578125 33.710938 18.539062 33.734375 18.5625 33.652344 C 18.5625 33.652344 18.585938 33.597656 18.609375 33.546875 C 18.632812 33.492188 18.65625 33.453125 18.65625 33.453125 L 18.648438 33.597656 C 18.671875 33.515625 18.695312 33.460938 18.710938 33.410156 C 18.730469 33.363281 18.746094 33.320312 18.777344 33.273438 C 18.777344 33.28125 18.769531 33.28125 18.761719 33.289062 L 18.761719 33.273438 C 18.753906 33.273438 18.746094 33.265625 18.738281 33.257812 C 18.738281 33.25 18.730469 33.25 18.730469 33.242188 C 18.730469 33.242188 18.730469 33.238281 18.726562 33.238281 C 18.726562 33.230469 18.726562 33.222656 18.726562 33.214844 C 18.71875 33.160156 18.71875 33.09375 18.726562 33.011719 C 18.746094 32.785156 18.703125 32.605469 18.808594 32.242188 L 18.738281 32.144531 L 18.800781 31.875 L 18.863281 31.875 C 18.839844 32.136719 18.839844 32.640625 18.816406 32.988281 L 18.847656 32.996094 C 18.863281 32.792969 18.847656 32.558594 18.863281 32.421875 C 18.878906 32.355469 18.957031 32.195312 18.988281 32.316406 L 18.933594 32.191406 C 18.964844 31.511719 18.964844 31.503906 19.074219 30.804688 L 19.042969 30.863281 C 19.035156 30.722656 19.019531 30.578125 19.074219 30.546875 C 19.105469 30.125 19.175781 29.679688 19.265625 29.410156 L 19.199219 29.34375 C 19.207031 29.253906 19.320312 29.125 19.21875 29.070312 L 19.199219 28.875 C 19.210938 28.753906 19.175781 28.671875 19.21875 28.535156 C 19.21875 28.527344 19.226562 28.519531 19.226562 28.515625 C 19.226562 28.515625 19.21875 28.515625 19.21875 28.515625 C 19.265625 28.234375 19.160156 28.515625 19.210938 28.199219 C 19.265625 28.097656 19.128906 28.078125 19.152344 27.925781 L 19.257812 27.777344 C 19.335938 27.496094 19.226562 27.445312 19.25 27.039062 C 19.296875 26.839844 19.390625 26.75 19.460938 26.886719 C 19.375 26.707031 19.398438 26.804688 19.367188 26.5625 C 19.40625 26.523438 19.414062 26.554688 19.445312 26.609375 C 19.5 26.398438 19.414062 26.480469 19.429688 26.320312 C 19.359375 26.269531 19.242188 26.214844 19.242188 26.164062 L 19.21875 26.222656 C 19.191406 26.058594 19.183594 25.871094 19.226562 25.675781 L 19.265625 25.683594 L 19.226562 25.5 L 19.273438 25.492188 L 19.273438 25.199219 L 19.257812 25.238281 C 19.257812 25.167969 19.25 24.9375 19.28125 24.808594 L 19.304688 24.816406 C 19.40625 24.453125 19.3125 24.144531 19.320312 23.707031 L 19.375 23.769531 C 19.4375 23.625 19.296875 23.722656 19.328125 23.550781 L 19.398438 23.542969 C 19.320312 23.382812 19.421875 23.347656 19.460938 23.242188 L 19.375 23.285156 L 19.398438 23.089844 C 19.4375 22.871094 19.515625 22.960938 19.5625 22.992188 L 19.5 22.84375 L 19.578125 22.8125 C 19.492188 22.699219 19.59375 22.707031 19.554688 22.511719 C 19.585938 22.496094 19.601562 22.546875 19.617188 22.480469 L 19.523438 22.15625 L 19.5625 22.351562 L 19.453125 22.324219 C 19.375 22.117188 19.476562 22.050781 19.453125 21.910156 L 19.484375 22.007812 C 19.46875 21.773438 19.515625 21.765625 19.546875 21.628906 C 19.523438 21.667969 19.492188 21.726562 19.476562 21.636719 C 19.476562 21.570312 19.515625 21.597656 19.53125 21.539062 C 19.453125 21.523438 19.421875 21.351562 19.460938 21.199219 C 19.46875 21.199219 19.484375 21.207031 19.484375 21.214844 C 19.476562 21.175781 19.453125 21.15625 19.476562 21.085938 L 19.5625 21.132812 L 19.484375 21.003906 C 19.507812 20.921875 19.453125 20.792969 19.507812 20.800781 L 19.523438 20.855469 L 19.570312 20.207031 L 19.640625 20.199219 C 19.554688 20.128906 19.6875 19.84375 19.570312 19.859375 C 19.640625 19.738281 19.539062 19.378906 19.671875 19.453125 C 19.695312 19.023438 19.578125 18.789062 19.65625 18.269531 C 19.769531 18.089844 19.746094 17.578125 19.769531 17.246094 C 19.738281 16.589844 19.714844 16.167969 19.695312 15.5 C 19.855469 15.097656 19.664062 14.496094 19.761719 14.066406 L 19.707031 13.945312 C 19.808594 13.660156 19.699219 13.222656 19.800781 12.816406 C 19.777344 12.71875 19.769531 12.667969 19.769531 12.644531 C 19.769531 12.660156 19.753906 12.6875 19.714844 12.695312 C 19.746094 12.582031 19.714844 12.351562 19.792969 12.363281 L 19.800781 12.394531 C 19.878906 12.410156 19.769531 12.046875 19.839844 11.921875 L 19.753906 11.988281 L 19.769531 11.769531 L 19.785156 11.832031 C 19.617188 10.882812 19.886719 10.460938 19.730469 9.5625 C 19.816406 9.683594 19.6875 9.390625 19.785156 9.375 C 19.910156 9.148438 19.761719 8.960938 19.730469 8.773438 C 19.722656 8.773438 19.722656 8.773438 19.714844 8.757812 L 19.730469 8.433594 C 19.855469 8.628906 19.632812 8.199219 19.730469 8.378906 C 19.832031 7.542969 19.746094 6.445312 19.792969 5.480469 L 19.761719 5.527344 C 19.769531 5.277344 19.730469 4.976562 19.785156 4.789062 C 19.839844 4.597656 19.707031 4.382812 19.699219 4.304688 C 19.648438 4.101562 19.753906 3.90625 19.746094 3.996094 C 19.730469 3.769531 19.617188 3.566406 19.648438 3.257812 C 19.695312 3.207031 19.664062 2.988281 19.617188 2.792969 C 19.570312 2.589844 19.523438 2.40625 19.585938 2.390625 L 19.578125 2.390625 C 19.585938 2.285156 19.578125 2.1875 19.554688 2.089844 C 19.546875 2.039062 19.53125 1.992188 19.523438 1.941406 C 19.507812 1.894531 19.492188 1.84375 19.476562 1.789062 C 19.421875 1.59375 19.34375 1.398438 19.3125 1.171875 C 19.3125 1.171875 19.320312 1.179688 19.335938 1.1875 C 19.335938 1.1875 19.296875 1.140625 19.234375 1.066406 C 19.175781 1 19.097656 0.910156 19.011719 0.816406 C 18.972656 0.773438 18.925781 0.734375 18.886719 0.691406 C 18.847656 0.652344 18.808594 0.613281 18.769531 0.585938 C 18.6875 0.53125 18.640625 0.496094 18.640625 0.496094 C 18.640625 0.496094 18.578125 0.59375 18.515625 0.691406 C 18.453125 0.78125 18.382812 0.871094 18.382812 0.871094 C 18.382812 0.871094 18.382812 0.886719 18.382812 0.902344 C 18.382812 0.921875 18.382812 0.953125 18.382812 0.984375 C 18.382812 1.050781 18.382812 1.148438 18.367188 1.238281 C 18.359375 1.332031 18.351562 1.421875 18.335938 1.488281 C 18.328125 1.554688 18.320312 1.601562 18.320312 1.601562 C 18.320312 1.601562 18.328125 1.625 18.34375 1.675781 C 18.359375 1.722656 18.382812 1.789062 18.40625 1.871094 C 18.453125 2.039062 18.507812 2.257812 18.546875 2.484375 C 18.570312 2.597656 18.585938 2.714844 18.601562 2.820312 C 18.617188 2.933594 18.632812 3.03125 18.640625 3.125 C 18.65625 3.304688 18.664062 3.425781 18.664062 3.425781 C 18.664062 3.425781 18.664062 3.523438 18.65625 3.664062 C 18.648438 3.808594 18.632812 4.003906 18.617188 4.199219 C 18.585938 4.597656 18.554688 4.992188 18.554688 4.992188 C 18.554688 4.992188 18.5625 5.960938 18.570312 6.933594 C 18.570312 7.90625 18.578125 8.878906 18.578125 8.878906 L 18.664062 9.15625 C 18.5 9.917969 18.664062 10.894531 18.539062 11.71875 L 18.617188 11.730469 C 18.617188 11.964844 18.570312 11.949219 18.554688 12.003906 C 18.53125 14.15625 18.578125 16.378906 18.421875 18.316406 C 18.367188 18.503906 18.375 19.070312 18.320312 19.210938 C 18.398438 19.84375 18.367188 20.507812 18.335938 21.140625 L 18.328125 21.117188 L 18.335938 21.410156 C 18.328125 21.425781 18.320312 21.425781 18.3125 21.417969 C 18.367188 21.757812 18.28125 22.277344 18.238281 22.691406 L 18.230469 22.667969 C 18.121094 25.054688 18.160156 27.285156 17.917969 29.652344 C 17.824219 30.199219 17.800781 30.796875 17.777344 31.414062 C 17.769531 31.722656 17.757812 32.039062 17.742188 32.347656 C 17.734375 32.503906 17.71875 32.664062 17.703125 32.820312 L 17.679688 33.054688 L 17.664062 33.175781 L 17.640625 33.394531 C 17.609375 33.523438 17.5625 34.035156 17.515625 34.710938 C 17.46875 35.382812 17.414062 36.21875 17.375 36.957031 C 17.824219 36.511719 18.246094 36.097656 18.578125 35.773438 C 18.902344 35.457031 19.128906 35.234375 19.199219 35.15625 Z M 19.199219 35.15625 "/>
</g>
<path style=" stroke:none;fill-rule:nonzero;fill:rgb(0.389099%,0.389099%,0.389099%);fill-opacity:1;" d="M 22.589844 32.605469 L 22.582031 32.609375 C 22.597656 32.632812 22.605469 32.617188 22.589844 32.605469 Z M 22.589844 32.605469 "/>
<path style=" stroke:none;fill-rule:nonzero;fill:rgb(0.389099%,0.389099%,0.389099%);fill-opacity:1;" d="M 18.585938 34.253906 C 18.585938 34.261719 18.585938 34.261719 18.585938 34.269531 L 18.640625 34.140625 Z M 18.585938 34.253906 "/>
<path style=" stroke:none;fill-rule:nonzero;fill:rgb(0.389099%,0.389099%,0.389099%);fill-opacity:1;" d="M 20.460938 32.890625 C 20.320312 32.972656 20.320312 32.980469 20.351562 32.980469 C 20.398438 32.941406 20.4375 32.914062 20.460938 32.890625 Z M 20.460938 32.890625 "/>
<path style=" stroke:none;fill-rule:nonzero;fill:rgb(0.389099%,0.389099%,0.389099%);fill-opacity:1;" d="M 23.660156 31.972656 C 23.730469 31.941406 23.699219 31.933594 23.644531 31.933594 C 23.574219 31.972656 23.523438 32 23.523438 32 C 23.566406 31.992188 23.613281 31.984375 23.660156 31.972656 Z M 23.660156 31.972656 "/>
<path style=" stroke:none;fill-rule:nonzero;fill:rgb(0.389099%,0.389099%,0.389099%);fill-opacity:1;" d="M 23.164062 31.746094 L 23.171875 31.707031 C 23.132812 31.738281 23.140625 31.746094 23.164062 31.746094 Z M 23.164062 31.746094 "/>
<path style=" stroke:none;fill-rule:nonzero;fill:rgb(0.389099%,0.389099%,0.389099%);fill-opacity:1;" d="M 15.175781 32.785156 C 15.175781 32.777344 15.167969 32.785156 15.175781 32.785156 Z M 15.175781 32.785156 "/>
<path style=" stroke:none;fill-rule:nonzero;fill:rgb(0.389099%,0.389099%,0.389099%);fill-opacity:1;" d="M 16.988281 34.515625 C 16.988281 34.515625 16.996094 34.515625 16.988281 34.515625 C 17.003906 34.507812 17.011719 34.5 17.027344 34.5 Z M 16.988281 34.515625 "/>
<path style=" stroke:none;fill-rule:nonzero;fill:rgb(0.389099%,0.389099%,0.389099%);fill-opacity:1;" d="M 17.175781 34.886719 C 17.183594 34.886719 17.191406 34.878906 17.175781 34.886719 Z M 17.175781 34.886719 "/>
<path style=" stroke:none;fill-rule:nonzero;fill:rgb(0.389099%,0.389099%,0.389099%);fill-opacity:1;" d="M 14.5625 32.347656 C 14.5625 32.347656 14.570312 32.347656 14.5625 32.347656 C 14.5625 32.347656 14.5625 32.339844 14.570312 32.339844 Z M 14.5625 32.347656 "/>
<path style=" stroke:none;fill-rule:nonzero;fill:rgb(0.389099%,0.389099%,0.389099%);fill-opacity:1;" d="M 14.585938 32.332031 C 14.585938 32.347656 14.570312 32.347656 14.5625 32.347656 C 14.554688 32.371094 14.5625 32.378906 14.578125 32.378906 C 14.59375 32.363281 14.578125 32.347656 14.585938 32.332031 Z M 14.585938 32.332031 "/>
<g clip-path="url(#clip2)" clip-rule="nonzero">
<path style=" stroke:none;fill-rule:nonzero;fill:rgb(0.389099%,0.389099%,0.389099%);fill-opacity:1;" d="M 13.484375 31.558594 L 13.492188 31.550781 C 13.492188 31.558594 13.484375 31.558594 13.484375 31.558594 Z M 13.484375 31.558594 "/>
<path style=" stroke:none;fill-rule:nonzero;fill:rgb(0.389099%,0.389099%,0.389099%);fill-opacity:1;" d="M 13.640625 31.707031 L 13.664062 31.675781 C 13.648438 31.683594 13.640625 31.699219 13.640625 31.707031 Z M 13.640625 31.707031 "/>
</g>
<path style=" stroke:none;fill-rule:nonzero;fill:rgb(0.389099%,0.389099%,0.389099%);fill-opacity:1;" d="M 17.027344 34.5 L 17.042969 34.496094 C 17.035156 34.496094 17.035156 34.496094 17.027344 34.5 Z M 17.027344 34.5 "/>
<path style=" stroke:none;fill-rule:nonzero;fill:rgb(0.389099%,0.389099%,0.389099%);fill-opacity:1;" d="M 17.390625 35.1875 C 17.382812 35.195312 17.375 35.203125 17.367188 35.203125 Z M 17.390625 35.1875 "/>
<g clip-path="url(#clip3)" clip-rule="nonzero">
<path style=" stroke:none;fill-rule:nonzero;fill:rgb(0.389099%,0.389099%,0.389099%);fill-opacity:1;" d="M 17.972656 37.019531 C 17.972656 37.019531 17.980469 37.011719 17.988281 37.011719 L 17.964844 37.019531 C 17.964844 37.019531 17.964844 37.019531 17.972656 37.019531 Z M 17.972656 37.019531 "/>
</g>
<path style=" stroke:none;fill-rule:nonzero;fill:rgb(0.389099%,0.389099%,0.389099%);fill-opacity:1;" d="M 17.570312 35.683594 C 17.570312 35.683594 17.578125 35.683594 17.585938 35.675781 C 17.59375 35.660156 17.578125 35.640625 17.5625 35.625 L 17.523438 35.648438 Z M 17.570312 35.683594 "/>
<g clip-path="url(#clip4)" clip-rule="nonzero">
<path style=" stroke:none;fill-rule:nonzero;fill:rgb(0.389099%,0.389099%,0.389099%);fill-opacity:1;" d="M 17.003906 36.730469 L 17.050781 36.640625 C 17.183594 36.753906 17.152344 36.867188 17.289062 36.941406 L 17.269531 36.949219 C 17.261719 36.980469 17.445312 36.875 17.351562 37.199219 L 17.34375 37.207031 C 17.351562 37.214844 17.367188 37.199219 17.351562 37.226562 L 17.375 37.167969 C 17.40625 37.175781 17.453125 37.167969 17.476562 37.191406 C 17.46875 37.199219 17.453125 37.214844 17.445312 37.222656 L 17.5 37.273438 L 17.460938 37.328125 C 17.5 37.328125 17.601562 37.25 17.578125 37.339844 C 17.640625 37.273438 17.640625 37.339844 17.671875 37.3125 C 17.664062 37.320312 17.65625 37.332031 17.648438 37.347656 C 17.679688 37.371094 17.734375 37.425781 17.785156 37.410156 C 17.785156 37.410156 17.863281 37.191406 17.917969 37.109375 C 17.925781 37.167969 17.933594 37.117188 17.957031 37.09375 L 17.933594 37.101562 C 17.933594 37.0625 17.980469 37.03125 17.988281 37.011719 C 17.988281 37.011719 17.980469 37.019531 17.972656 37.019531 L 17.980469 37.019531 C 17.972656 37.023438 17.964844 37.023438 17.964844 37.023438 C 17.957031 37.03125 17.949219 37.03125 17.941406 37.023438 L 17.949219 37.023438 C 17.933594 37.019531 17.925781 36.996094 17.925781 36.980469 L 17.964844 36.957031 C 17.878906 36.988281 17.988281 36.753906 17.972656 36.722656 C 18.003906 36.664062 17.917969 36.671875 17.917969 36.625 C 17.894531 36.566406 17.957031 36.566406 17.972656 36.511719 C 17.972656 36.460938 17.933594 36.550781 17.917969 36.535156 L 17.941406 36.460938 C 17.964844 36.484375 17.980469 36.453125 17.988281 36.4375 C 17.972656 36.398438 18.003906 36.292969 17.917969 36.339844 C 17.925781 36.273438 17.957031 36.25 17.941406 36.226562 C 17.933594 36.242188 17.925781 36.265625 17.910156 36.273438 C 17.933594 36.234375 17.894531 36.273438 17.894531 36.28125 C 17.839844 36.273438 17.925781 36.039062 17.839844 36.089844 L 17.855469 36.082031 C 17.785156 36.121094 17.742188 36.175781 17.6875 36.175781 L 17.703125 36.144531 L 17.664062 36.144531 C 17.671875 36.113281 17.695312 36.113281 17.703125 36.105469 C 17.648438 36.089844 17.648438 36.023438 17.632812 35.976562 L 17.492188 36.136719 C 17.507812 36.074219 17.546875 35.964844 17.484375 35.992188 L 17.523438 35.933594 C 17.585938 35.789062 17.445312 35.917969 17.453125 35.871094 L 17.492188 35.796875 L 17.515625 35.828125 C 17.523438 35.773438 17.53125 35.746094 17.554688 35.691406 C 17.554688 35.691406 17.554688 35.699219 17.546875 35.699219 L 17.539062 35.699219 C 17.507812 35.714844 17.46875 35.714844 17.453125 35.691406 C 17.4375 35.652344 17.375 35.660156 17.398438 35.5625 L 17.328125 35.59375 L 17.335938 35.527344 L 17.382812 35.488281 C 17.40625 35.527344 17.484375 35.585938 17.523438 35.640625 L 17.546875 35.625 C 17.523438 35.59375 17.476562 35.578125 17.46875 35.554688 C 17.46875 35.542969 17.507812 35.480469 17.554688 35.472656 L 17.492188 35.488281 C 17.414062 35.390625 17.40625 35.398438 17.382812 35.253906 L 17.367188 35.285156 C 17.335938 35.277344 17.304688 35.261719 17.34375 35.234375 C 17.304688 35.164062 17.285156 35.082031 17.3125 34.992188 L 17.253906 35.027344 C 17.246094 35.015625 17.3125 34.929688 17.230469 34.984375 L 17.183594 34.976562 C 17.175781 34.953125 17.128906 34.96875 17.144531 34.921875 C 17.144531 34.921875 17.144531 34.917969 17.144531 34.917969 C 17.144531 34.917969 17.144531 34.917969 17.136719 34.921875 C 17.128906 34.863281 17.082031 34.960938 17.082031 34.894531 C 17.113281 34.847656 16.996094 34.929688 16.988281 34.902344 L 17.050781 34.816406 C 17.066406 34.742188 16.980469 34.796875 16.925781 34.742188 C 16.933594 34.691406 16.988281 34.621094 17.066406 34.59375 C 16.972656 34.621094 17.011719 34.621094 16.941406 34.613281 C 16.964844 34.585938 16.980469 34.585938 17.011719 34.570312 C 17.019531 34.507812 16.964844 34.570312 16.949219 34.546875 C 16.886719 34.585938 16.789062 34.652344 16.78125 34.644531 L 16.773438 34.667969 C 16.71875 34.667969 16.6875 34.652344 16.695312 34.605469 L 16.726562 34.585938 L 16.6875 34.570312 L 16.71875 34.539062 L 16.671875 34.507812 L 16.664062 34.523438 C 16.648438 34.515625 16.609375 34.496094 16.617188 34.464844 L 16.640625 34.449219 C 16.65625 34.34375 16.539062 34.375 16.484375 34.320312 L 16.53125 34.289062 C 16.554688 34.238281 16.460938 34.335938 16.460938 34.296875 L 16.507812 34.253906 C 16.421875 34.289062 16.5 34.214844 16.507812 34.179688 L 16.445312 34.238281 L 16.4375 34.199219 C 16.429688 34.15625 16.5 34.109375 16.539062 34.085938 L 16.46875 34.109375 L 16.523438 34.058594 C 16.445312 34.101562 16.523438 34.035156 16.460938 34.035156 C 16.484375 34.011719 16.5 34.011719 16.5 33.988281 L 16.382812 34.019531 L 16.445312 34.011719 L 16.359375 34.078125 C 16.277344 34.109375 16.335938 34.035156 16.300781 34.035156 L 16.335938 34.027344 C 16.292969 34.011719 16.324219 33.980469 16.324219 33.945312 C 16.316406 33.96875 16.300781 33.988281 16.277344 33.988281 C 16.261719 33.980469 16.300781 33.960938 16.300781 33.945312 C 16.246094 33.988281 16.191406 33.996094 16.199219 33.953125 C 16.207031 33.945312 16.214844 33.9375 16.222656 33.9375 C 16.207031 33.9375 16.191406 33.953125 16.199219 33.929688 L 16.269531 33.882812 L 16.191406 33.921875 C 16.199219 33.898438 16.136719 33.921875 16.183594 33.882812 L 16.199219 33.875 L 16.128906 33.777344 L 16.175781 33.734375 C 16.097656 33.785156 16.152344 33.664062 16.074219 33.742188 C 16.105469 33.679688 15.980469 33.703125 16.082031 33.628906 C 16.035156 33.566406 15.917969 33.613281 15.894531 33.507812 C 15.949219 33.410156 15.855469 33.363281 15.828125 33.320312 C 15.710938 33.265625 15.625 33.238281 15.507812 33.175781 C 15.5625 33.019531 15.339844 33.085938 15.347656 32.972656 L 15.292969 33.003906 C 15.324219 32.898438 15.183594 32.925781 15.191406 32.816406 C 15.160156 32.820312 15.144531 32.820312 15.144531 32.820312 C 15.144531 32.828125 15.144531 32.835938 15.113281 32.867188 C 15.113281 32.835938 15.058594 32.828125 15.113281 32.777344 L 15.121094 32.777344 C 15.175781 32.722656 15.050781 32.761719 15.074219 32.695312 L 15.027344 32.761719 L 15.003906 32.722656 L 15.019531 32.714844 C 14.773438 32.730469 14.886719 32.492188 14.648438 32.503906 C 14.726562 32.453125 14.59375 32.519531 14.65625 32.445312 C 14.710938 32.332031 14.578125 32.414062 14.53125 32.414062 C 14.53125 32.414062 14.523438 32.421875 14.515625 32.429688 L 14.476562 32.386719 C 14.585938 32.316406 14.378906 32.429688 14.46875 32.378906 C 14.414062 32.210938 14.199219 32.152344 14.089844 32.007812 L 14.074219 32.039062 C 14.042969 32.007812 13.972656 32 13.980469 31.941406 C 13.988281 31.878906 13.875 31.957031 13.859375 31.949219 C 13.796875 31.964844 13.835938 31.867188 13.84375 31.878906 C 13.804688 31.867188 13.703125 31.925781 13.6875 31.859375 C 13.742188 31.769531 13.5 31.84375 13.578125 31.753906 L 13.570312 31.761719 C 13.5625 31.65625 13.425781 31.722656 13.410156 31.617188 C 13.410156 31.617188 13.417969 31.609375 13.425781 31.609375 L 13.082031 31.789062 L 12.875 32.121094 L 12.78125 32.445312 C 12.78125 32.445312 12.859375 32.484375 12.945312 32.519531 C 13.019531 32.558594 13.105469 32.605469 13.105469 32.605469 L 13.246094 32.867188 C 13.246094 32.867188 13.277344 32.890625 13.332031 32.925781 C 13.386719 32.964844 13.445312 33.019531 13.515625 33.0625 C 13.585938 33.117188 13.648438 33.160156 13.703125 33.199219 C 13.75 33.238281 13.789062 33.265625 13.789062 33.265625 L 13.882812 33.238281 C 13.875 33.441406 14.128906 33.417969 14.152344 33.597656 L 14.207031 33.546875 C 14.238281 33.566406 14.207031 33.597656 14.207031 33.621094 C 14.492188 33.863281 14.84375 34.058594 15.003906 34.367188 C 14.988281 34.417969 15.082031 34.472656 15.058594 34.523438 C 15.199219 34.539062 15.285156 34.621094 15.355469 34.710938 L 15.347656 34.710938 L 15.390625 34.742188 C 15.390625 34.75 15.382812 34.757812 15.375 34.757812 C 15.46875 34.757812 15.476562 34.871094 15.5 34.9375 L 15.492188 34.9375 C 15.757812 35.253906 16.121094 35.457031 16.292969 35.84375 C 16.300781 35.957031 16.375 36.03125 16.453125 36.097656 C 16.53125 36.175781 16.609375 36.25 16.632812 36.371094 C 16.648438 36.390625 16.949219 36.714844 17.003906 36.730469 Z M 17.003906 36.730469 "/>
</g>
<g clip-path="url(#clip5)" clip-rule="nonzero">
<path style=" stroke:none;fill-rule:nonzero;fill:rgb(0.389099%,0.389099%,0.389099%);fill-opacity:1;" d="M 17.453125 37.207031 C 17.429688 37.222656 17.4375 37.222656 17.453125 37.207031 Z M 17.453125 37.207031 "/>
</g>
<path style=" stroke:none;fill-rule:nonzero;fill:rgb(0.389099%,0.389099%,0.389099%);fill-opacity:1;" d="M 17.65625 35.964844 L 17.6875 35.933594 Z M 17.65625 35.964844 "/>
<path style=" stroke:none;fill-rule:nonzero;fill:rgb(0.389099%,0.389099%,0.389099%);fill-opacity:1;" d="M 18.027344 36.445312 C 18.019531 36.414062 18.011719 36.421875 18.003906 36.429688 C 18.011719 36.4375 18.019531 36.445312 18.027344 36.445312 Z M 18.027344 36.445312 "/>
<g clip-path="url(#clip6)" clip-rule="nonzero">
<path style=" stroke:none;fill-rule:nonzero;fill:rgb(0.389099%,0.389099%,0.389099%);fill-opacity:1;" d="M 17.625 37.355469 C 17.632812 37.371094 17.640625 37.355469 17.65625 37.332031 C 17.648438 37.328125 17.640625 37.320312 17.640625 37.320312 C 17.640625 37.328125 17.632812 37.347656 17.625 37.355469 Z M 17.625 37.355469 "/>
<path style=" stroke:none;fill-rule:nonzero;fill:rgb(0.389099%,0.389099%,0.389099%);fill-opacity:1;" d="M 17.964844 37.078125 L 17.988281 37.070312 C 17.980469 37.070312 17.972656 37.070312 17.964844 37.078125 Z M 17.964844 37.078125 "/>
</g>
</g>
</svg>
