<?xml version="1.0" encoding="UTF-8"?>
<svg xmlns="http://www.w3.org/2000/svg" xmlns:xlink="http://www.w3.org/1999/xlink" width="37.5pt" height="37.499999pt" viewBox="0 0 37.5 37.499999" version="1.2">
<defs>
<clipPath id="clip1">
  <path d="M 0.367188 4.6875 L 37.007812 4.6875 L 37.007812 33.1875 L 0.367188 33.1875 Z M 0.367188 4.6875 "/>
</clipPath>
</defs>
<g id="surface1">
<g clip-path="url(#clip1)" clip-rule="nonzero">
<path style=" stroke:none;fill-rule:nonzero;fill:rgb(0.389099%,0.389099%,0.389099%);fill-opacity:1;" d="M 34.117188 13.273438 L 25.351562 13.273438 L 21.871094 5.078125 C 21.796875 4.902344 21.597656 4.820312 21.425781 4.898438 C 21.253906 4.972656 21.175781 5.179688 21.25 5.355469 L 24.617188 13.273438 L 12.613281 13.273438 L 15.742188 5.207031 C 15.8125 5.03125 15.726562 4.828125 15.554688 4.757812 C 15.382812 4.6875 15.1875 4.773438 15.117188 4.949219 L 11.886719 13.273438 L 3.355469 13.273438 C 1.71875 13.273438 0.382812 14.640625 0.382812 16.324219 C 0.382812 17.910156 1.566406 19.21875 3.074219 19.363281 L 5.394531 33.277344 C 5.421875 33.445312 5.5625 33.566406 5.726562 33.566406 L 31.746094 33.566406 C 31.910156 33.566406 32.050781 33.445312 32.078125 33.277344 L 33.253906 26.226562 C 33.265625 26.195312 33.269531 26.160156 33.269531 26.125 L 34.398438 19.363281 C 35.90625 19.21875 37.089844 17.910156 37.089844 16.324219 C 37.089844 14.640625 35.757812 13.273438 34.117188 13.273438 Z M 10.035156 32.871094 L 6.011719 32.871094 L 4.945312 26.46875 L 10.035156 26.46875 Z M 10.035156 25.777344 L 4.828125 25.777344 L 3.761719 19.378906 L 10.035156 19.378906 Z M 15.578125 32.871094 L 10.710938 32.871094 L 10.710938 26.46875 L 15.578125 26.46875 Z M 15.578125 25.777344 L 10.710938 25.777344 L 10.710938 19.378906 L 15.578125 19.378906 Z M 21.121094 32.871094 L 16.253906 32.871094 L 16.253906 26.46875 L 21.121094 26.46875 Z M 21.121094 25.777344 L 16.253906 25.777344 L 16.253906 19.378906 L 21.121094 19.378906 Z M 26.664062 32.871094 L 21.796875 32.871094 L 21.796875 26.46875 L 26.664062 26.46875 Z M 26.664062 25.777344 L 21.796875 25.777344 L 21.796875 19.378906 L 26.664062 19.378906 Z M 31.460938 32.871094 L 27.339844 32.871094 L 27.339844 26.46875 L 32.53125 26.46875 Z M 32.644531 25.777344 L 27.339844 25.777344 L 27.339844 19.378906 L 33.710938 19.378906 Z M 34.136719 18.683594 C 34.128906 18.683594 34.121094 18.679688 34.113281 18.679688 L 3.363281 18.679688 C 3.355469 18.679688 3.347656 18.683594 3.335938 18.683594 C 2.078125 18.671875 1.058594 17.621094 1.058594 16.324219 C 1.058594 15.023438 2.089844 13.964844 3.355469 13.964844 L 11.617188 13.964844 L 10.878906 15.863281 C 10.808594 16.039062 10.894531 16.242188 11.066406 16.3125 C 11.109375 16.332031 11.152344 16.339844 11.191406 16.339844 C 11.328125 16.339844 11.453125 16.253906 11.503906 16.121094 L 12.34375 13.964844 L 24.910156 13.964844 L 25.972656 16.464844 C 26.027344 16.59375 26.152344 16.671875 26.28125 16.671875 C 26.328125 16.671875 26.371094 16.664062 26.414062 16.644531 C 26.585938 16.566406 26.664062 16.363281 26.589844 16.1875 L 25.648438 13.964844 L 34.117188 13.964844 C 35.382812 13.964844 36.414062 15.023438 36.414062 16.324219 C 36.414062 17.621094 35.394531 18.675781 34.136719 18.683594 Z M 34.136719 18.683594 "/>
</g>
</g>
</svg>
