<?xml version="1.0" encoding="UTF-8"?>
<svg xmlns="http://www.w3.org/2000/svg" xmlns:xlink="http://www.w3.org/1999/xlink" width="37.5pt" height="37.499999pt" viewBox="0 0 37.5 37.499999" version="1.2">
<defs>
<clipPath id="clip1">
  <path d="M 0.511719 16.128906 L 35.539062 16.128906 L 35.539062 33.652344 L 0.511719 33.652344 Z M 0.511719 16.128906 "/>
</clipPath>
<clipPath id="clip2">
  <path d="M 23.144531 3.832031 L 37.007812 3.832031 L 37.007812 15.058594 L 23.144531 15.058594 Z M 23.144531 3.832031 "/>
</clipPath>
</defs>
<g id="surface1">
<g clip-path="url(#clip1)" clip-rule="nonzero">
<path style=" stroke:none;fill-rule:nonzero;fill:rgb(39.608765%,28.62854%,36.079407%);fill-opacity:1;" d="M 12.148438 30.617188 C 12.082031 30.78125 11.929688 30.890625 11.757812 30.902344 C 11.695312 30.90625 11.632812 30.898438 11.566406 30.871094 C 9.289062 30 7.222656 28.585938 5.585938 26.777344 C 4.734375 25.835938 4 24.792969 3.40625 23.679688 C 3.292969 23.460938 3.375 23.195312 3.59375 23.078125 C 3.8125 22.964844 4.085938 23.046875 4.199219 23.261719 C 4.757812 24.3125 5.449219 25.296875 6.253906 26.183594 C 7.796875 27.886719 9.746094 29.222656 11.890625 30.042969 C 12.121094 30.132812 12.234375 30.386719 12.148438 30.617188 Z M 34.503906 16.335938 L 1.367188 16.335938 C 0.863281 16.335938 0.476562 16.761719 0.515625 17.261719 C 1.007812 23.480469 4.800781 28.777344 10.160156 31.429688 C 10.675781 31.683594 11.238281 31.824219 11.8125 31.855469 C 11.847656 31.859375 11.859375 31.898438 11.832031 31.917969 C 11.308594 32.324219 10.882812 32.78125 10.578125 33.277344 C 10.476562 33.441406 10.589844 33.652344 10.78125 33.652344 L 25.085938 33.652344 C 25.28125 33.652344 25.394531 33.441406 25.292969 33.277344 C 24.988281 32.78125 24.558594 32.324219 24.035156 31.917969 C 24.007812 31.898438 24.019531 31.859375 24.050781 31.855469 C 24.628906 31.824219 25.191406 31.683594 25.707031 31.429688 C 31.066406 28.777344 34.859375 23.480469 35.351562 17.261719 C 35.390625 16.761719 35.007812 16.335938 34.503906 16.335938 "/>
</g>
<g clip-path="url(#clip2)" clip-rule="nonzero">
<path style=" stroke:none;fill-rule:nonzero;fill:rgb(39.608765%,28.62854%,36.079407%);fill-opacity:1;" d="M 37.101562 9.066406 C 36.800781 9.5625 36.257812 9.789062 35.738281 9.726562 L 31.722656 14.980469 C 31.6875 15.023438 31.632812 15.050781 31.574219 15.050781 L 23.667969 15.050781 C 23.507812 15.050781 23.421875 14.875 23.515625 14.75 L 30.410156 5.722656 C 30.207031 5.238281 30.28125 4.65625 30.683594 4.238281 C 31.179688 3.714844 32.027344 3.710938 32.605469 4.144531 L 36.671875 7.203125 C 37.25 7.640625 37.476562 8.449219 37.101562 9.066406 "/>
</g>
</g>
</svg>
